<svg id="Artwork" xmlns="http://www.w3.org/2000/svg" viewBox="0 0 283.5 283.5" fill="#4884EC"><title>ICONS</title><path d="M59.77,198a4.83,4.83,0,0,0,0-6.89,5,5,0,0,0-7,0L33.9,209.7a4.82,4.82,0,0,0,0,6.89,5,5,0,0,0,7,0ZM184.26,67.49a22.65,22.65,0,0,0,0,32.37,23.49,23.49,0,0,0,32.84,0,22.66,22.66,0,0,0,0-32.37A23.49,23.49,0,0,0,184.26,67.49ZM210.11,93a13.48,13.48,0,0,1-18.85,0,13,13,0,0,1,0-18.58,13.49,13.49,0,0,1,18.85,0,13,13,0,0,1,0,18.58ZM75.37,206.47a5,5,0,0,0-7,0L41.9,232.57a4.83,4.83,0,0,0,0,6.89,5,5,0,0,0,7,0l26.48-26.1A4.83,4.83,0,0,0,75.37,206.47ZM247.9,40.53a4.91,4.91,0,0,0-3.44-3.39c-18-4.93-37.55-4-56.47,2.77-14.66,5.23-28.91,14-39.11,24L133.5,79.1,77.78,87.68A5,5,0,0,0,75,89.05L39.41,124.17a4.83,4.83,0,0,0-1.11,5.22,4.94,4.94,0,0,0,4.4,3.1l35.15,1.46L69,142.63a4.82,4.82,0,0,0,0,6.89l5.14,5.07L58.82,177.8a4.82,4.82,0,0,0,.65,6.11L99,222.84a5,5,0,0,0,6.2.64l23.54-15.14,5.14,5.07a5,5,0,0,0,7,0l8.81-8.68,1.48,34.64a4.88,4.88,0,0,0,3.15,4.34,5,5,0,0,0,5.29-1.09l35.64-35.12a4.86,4.86,0,0,0,1.39-2.7l8.7-54.91,15.38-15.16c10.2-10,19.09-24.1,24.39-38.54C251.93,77.54,252.9,58.3,247.9,40.53ZM103.13,213.15,69.3,179.81l12-18.17L98,178l-2,1.93a4.83,4.83,0,0,0,0,6.89,5,5,0,0,0,7,0l2-1.93,16.62,16.38ZM213.7,127.83l-16.52,16.28h0L180,161.06a4.83,4.83,0,0,0,0,6.89,5,5,0,0,0,7,0l6.47-6.38-6.36,40.14-26.53,26.15-1.39-32.51L173,181.74a4.83,4.83,0,0,0,0-6.89,5,5,0,0,0-7,0L150.65,190l0,0-13.27,13.07-4.41-4.35-.15-.15L111.94,178l59.82-59a4.82,4.82,0,0,0,0-6.89,5,5,0,0,0-7,0l-59.82,59L84.1,150.57l-.15-.15-4.41-4.35L92.8,133l0,0,15.34-15.12a4.82,4.82,0,0,0,0-6.9,5,5,0,0,0-7,0L87.35,124.58l-33-1.37L80.9,97.07l40.73-6.27-6.47,6.38,7,6.89L139.3,87.18l.11-.11,16.47-16.23c13.76-13.56,46.45-33.66,83.2-25C247.86,82.05,227.46,114.26,213.7,127.83Zm-129,94.71L65.8,241.14a4.82,4.82,0,0,0,0,6.89,5,5,0,0,0,7,0l18.88-18.6a4.82,4.82,0,0,0,0-6.89A5,5,0,0,0,84.68,222.54Z"/></svg>